HIERARCHY
ROOT Hips
{
	OFFSET 0.000000 0.000000 0.000000
	CHANNELS 6 Xposition Yposition Zposition Zrotation Yrotation Xrotation 
	JOINT LHipJoint
	{
		OFFSET 0.000000 0.000000 0.000000
		CHANNELS 3 Zrotation Yrotation Xrotation
		JOINT LeftUpLeg
		{
			OFFSET 1.363060 -1.794630 0.839290
			CHANNELS 3 Zrotation Yrotation Xrotation
			JOINT LeftLeg
			{
				OFFSET 2.448110 -6.726130 0.000000
				CHANNELS 3 Zrotation Yrotation Xrotation
				JOINT LeftFoot
				{
					OFFSET 2.562200 -7.039590 0.000000
					CHANNELS 3 Zrotation Yrotation Xrotation
					JOINT LeftToeBase
					{
						OFFSET 0.157640 -0.433110 2.322550
						CHANNELS 3 Zrotation Yrotation Xrotation
						End Site
						{
							OFFSET 0.000000 0.000000 0.000000
						}
					}
				}
			}
		}
	}
	JOINT RHipJoint
	{
		OFFSET 0.000000 0.000000 0.000000
		CHANNELS 3 Zrotation Yrotation Xrotation
		JOINT RightUpLeg
		{
			OFFSET -1.305520 -1.794630 0.839290
			CHANNELS 3 Zrotation Yrotation Xrotation
			JOINT RightLeg
			{
				OFFSET -2.542530 -6.985550 0.000000
				CHANNELS 3 Zrotation Yrotation Xrotation
				JOINT RightFoot
				{
					OFFSET -2.568260 -7.056230 0.000000
					CHANNELS 3 Zrotation Yrotation Xrotation
					JOINT RightToeBase
					{
						OFFSET -0.164730 -0.452590 2.363150
						CHANNELS 3 Zrotation Yrotation Xrotation
						End Site
						{
							OFFSET 0.000000 0.000000 0.000000
						}
					}
				}
			}
		}
	}
	JOINT LowerBack
	{
		OFFSET 0.000000 0.000000 0.000000
		CHANNELS 3 Zrotation Yrotation Xrotation
		JOINT Spine
		{
			OFFSET 0.028270 2.035590 -0.193380
			CHANNELS 3 Zrotation Yrotation Xrotation
			JOINT Spine1
			{
				OFFSET 0.056720 2.048850 -0.042750
				CHANNELS 3 Zrotation Yrotation Xrotation
				JOINT Neck
				{
					OFFSET 0.000000 0.000000 0.000000
					CHANNELS 3 Zrotation Yrotation Xrotation
					JOINT Neck1
					{
						OFFSET -0.054170 1.746240 0.172020
						CHANNELS 3 Zrotation Yrotation Xrotation
						JOINT Head
						{
							OFFSET 0.104070 1.761360 -0.123970
							CHANNELS 3 Zrotation Yrotation Xrotation
							End Site
							{
								OFFSET 0.000000 0.000000 0.000000
							}
						}
					}
				}
				JOINT LeftShoulder
				{
					OFFSET 0.000000 0.000000 0.000000
					CHANNELS 3 Zrotation Yrotation Xrotation
					JOINT LeftArm
					{
						OFFSET 3.362410 1.200890 -0.311210
						CHANNELS 3 Zrotation Yrotation Xrotation
						JOINT LeftForeArm
						{
							OFFSET 4.983000 -0.000000 -0.000000
							CHANNELS 3 Zrotation Yrotation Xrotation
							JOINT LeftHand
							{
								OFFSET 3.483560 -0.000000 -0.000000
								CHANNELS 3 Zrotation Yrotation Xrotation
								JOINT LeftFingerBase
								{
									OFFSET 0.000000 0.000000 0.000000
									CHANNELS 3 Zrotation Yrotation Xrotation
									JOINT LeftHandIndex1
									{
										OFFSET 0.715260 -0.000000 -0.000000
										CHANNELS 3 Zrotation Yrotation Xrotation
										End Site
										{
											OFFSET 0.000000 0.000000 0.000000
										}
									}
								}
								JOINT LThumb
								{
									OFFSET 0.000000 0.000000 0.000000
									CHANNELS 3 Zrotation Yrotation Xrotation
									End Site
									{
										OFFSET 0.000000 0.000000 0.000000
									}
								}
							}
						}
					}
				}
				JOINT RightShoulder
				{
					OFFSET 0.000000 0.000000 0.000000
					CHANNELS 3 Zrotation Yrotation Xrotation
					JOINT RightArm
					{
						OFFSET -3.136600 1.374050 -0.404650
						CHANNELS 3 Zrotation Yrotation Xrotation
						JOINT RightForeArm
						{
							OFFSET -5.241900 -0.000000 -0.000000
							CHANNELS 3 Zrotation Yrotation Xrotation
							JOINT RightHand
							{
								OFFSET -3.444170 -0.000000 -0.000000
								CHANNELS 3 Zrotation Yrotation Xrotation
								JOINT RightFingerBase
								{
									OFFSET 0.000000 0.000000 0.000000
									CHANNELS 3 Zrotation Yrotation Xrotation
									JOINT RightHandIndex1
									{
										OFFSET -0.622530 -0.000000 -0.000000
										CHANNELS 3 Zrotation Yrotation Xrotation
										End Site
										{
											OFFSET 0.000000 0.000000 0.000000
										}
									}
								}
								JOINT RThumb
								{
									OFFSET 0.000000 0.000000 0.000000
									CHANNELS 3 Zrotation Yrotation Xrotation
									End Site
									{
										OFFSET 0.000000 0.000000 0.000000
									}
								}
							}
						}
					}
				}
			}
		}
	}
}
MOTION
Frames: 9
Frame Time: 0.008333
8.871473 17.412030 29.570948 -163.462636 -79.722487 176.774611 -1.914921 -5.831822 -3.293821 -13.834722 4.957991 -28.694037 0.211986 12.518368 31.386876 1.965702 -1.406204 5.831434 1.047900 -6.509700 -18.270600 -1.038319 4.935762 -3.119584 27.695817 -15.443146 -32.605690 -0.394333 -12.326278 31.199669 -6.266846 19.393656 5.487649 -0.096500 -2.002900 5.513700 7.668956 3.224734 1.763110 0.676433 4.181168 -4.770260 -1.296998 1.145294 -12.950873 -23.908463 -9.666254 1.764534 8.519891 -20.654819 7.776096 18.498800 -10.834900 6.335700 -8.764931 -9.337320 1.180568 -85.391943 22.445510 16.925089 21.512271 -28.134874 -7.350038 0.683075 -1.055750 -31.358819 3.366148 -4.272808 -0.175500 -7.125000 0.000000 0.000000 -17.573900 26.828800 8.112300 5.257539 4.710601 -0.437710 76.699328 -16.730343 9.921119 -11.159490 21.703088 -3.426989 0.124343 0.723491 18.844048 -9.623863 -1.645435 0.398600 7.125000 0.000000 0.000000 13.697000 -32.184000 4.406900 
8.868038 17.418123 29.576044 -163.652908 -79.753611 176.947497 -1.930437 -5.833349 -3.280107 -13.916287 5.086965 -28.685222 0.179353 12.477161 31.276897 2.039277 -1.600159 5.955249 1.008100 -6.388500 -17.916000 -1.026824 4.935876 -3.121002 27.583673 -15.356266 -32.465680 -0.366287 -12.288688 31.088837 -6.254273 19.281149 5.557319 -0.098700 -2.026100 5.577900 7.558098 3.228250 1.624445 0.674472 4.172382 -4.762913 -1.233520 1.158049 -12.881959 -23.901357 -9.635292 1.810849 8.483340 -20.618564 7.854355 18.483800 -10.845900 6.349200 -8.767939 -9.328698 1.189762 -85.265866 22.314262 17.889656 21.453155 -28.125535 -7.355020 0.799764 -1.100564 -29.799707 1.663857 -4.098493 -0.072700 -7.125000 0.000000 0.000000 -18.947400 27.058500 8.705500 5.244016 4.693296 -0.457002 77.000138 -16.867001 11.084206 -11.026868 21.572636 -3.353227 0.094657 0.792215 18.334183 -8.382601 -1.942708 0.394900 7.125000 0.000000 0.000000 14.766900 -32.486700 4.659600 
8.864383 17.424105 29.580919 -163.829447 -79.774082 177.112422 -1.942054 -5.834805 -3.266672 -14.001904 5.253725 -28.697495 0.150316 12.437181 31.177089 2.124038 -1.826508 6.075183 0.971300 -6.274300 -17.582400 -1.016029 4.936470 -3.122659 27.485191 -15.284125 -32.338587 -0.339923 -12.252475 30.982019 -6.244922 19.192826 5.616855 -0.100000 -2.039400 5.614700 7.445792 3.232724 1.480835 0.674922 4.163769 -4.755428 -1.158734 1.173034 -12.808680 -23.898636 -9.605177 1.849708 8.443369 -20.578735 7.934771 18.465800 -10.854900 6.363900 -8.770581 -9.317916 1.200536 -85.090270 22.179809 18.741568 21.384578 -28.109281 -7.358770 0.902011 -1.132518 -28.143191 0.181321 -4.101581 0.003700 -7.125000 0.000000 0.000000 -20.122400 27.093200 9.294400 5.228992 4.674096 -0.477311 77.273884 -17.044069 12.376129 -10.966762 21.537361 -3.312629 0.061766 0.861605 17.733344 -7.204881 -2.214382 0.375800 7.125000 0.000000 0.000000 15.786700 -32.760600 4.894400 
8.860505 17.429644 29.585350 -163.979586 -79.783610 177.254452 -1.949100 -5.835998 -3.253495 -14.087654 5.457736 -28.731477 0.124886 12.398343 31.088321 2.227625 -2.106352 6.198349 0.927500 -6.135300 -17.177400 -1.005628 4.937740 -3.125217 27.397227 -15.204642 -32.215088 -0.314365 -12.218483 30.878754 -6.235438 19.103070 5.662930 -0.100300 -2.042500 5.623000 7.330984 3.234865 1.330776 0.679749 4.149830 -4.747681 -1.063062 1.189283 -12.727856 -23.906438 -9.573584 1.871872 8.398742 -20.529580 8.019650 18.444900 -10.859100 6.382300 -8.771574 -9.305188 1.211914 -84.859964 22.056001 19.593213 21.328707 -28.100675 -7.358278 0.969051 -1.151072 -26.670072 -0.765626 -4.188026 0.053000 -7.125000 0.000000 0.000000 -20.863300 27.027400 9.718000 5.214049 4.652745 -0.498276 77.510250 -17.248598 13.791088 -10.971387 21.586287 -3.300908 0.026452 0.930807 17.046615 -6.093805 -2.466859 0.345000 7.125000 0.000000 0.000000 16.753100 -33.013400 5.109800 
8.856295 17.434962 29.589228 -164.094510 -79.783684 177.371059 -1.951405 -5.837072 -3.240953 -14.172398 5.695430 -28.789066 0.102810 12.360732 31.010242 2.347289 -2.433568 6.324037 0.879000 -5.977100 -16.718100 -0.995753 4.940031 -3.128591 27.322049 -15.120222 -32.100341 -0.290070 -12.187139 30.780887 -6.226455 19.018404 5.698239 -0.100100 -2.039900 5.615900 7.217594 3.237418 1.170866 0.685907 4.135245 -4.740138 -0.962037 1.206109 -12.641908 -23.911097 -9.541106 1.888916 8.351943 -20.474004 8.105564 18.422300 -10.859900 6.398700 -8.772662 -9.289976 1.223942 -84.568126 21.940963 20.488216 21.282338 -28.089372 -7.340219 0.990077 -1.157160 -25.557512 -1.008113 -4.249569 0.068000 -7.125000 0.000000 0.000000 -21.060600 26.970600 9.853400 5.197739 4.630236 -0.519406 77.728762 -17.479006 15.301283 -11.036801 21.712414 -3.315425 -0.010922 0.999164 16.280436 -5.046002 -2.706347 0.305000 7.125000 0.000000 0.000000 17.668800 -33.251600 5.305900 
8.851864 17.439726 29.592662 -164.195419 -79.776959 177.482017 -1.949604 -5.838640 -3.229163 -14.258993 5.961023 -28.869845 0.083895 12.324962 30.943165 2.483444 -2.810689 6.452788 0.823700 -5.790700 -16.178200 -0.986403 4.943117 -3.132840 27.253006 -15.023200 -31.992072 -0.266412 -12.158369 30.687771 -6.216144 18.924537 5.725520 -0.099500 -2.034200 5.600200 7.099907 3.239988 0.999235 0.693065 4.119108 -4.733233 -0.853639 1.223487 -12.551993 -23.913430 -9.506888 1.903275 8.303204 -20.411299 8.192401 18.398700 -10.857100 6.412100 -8.773278 -9.271458 1.236778 -84.211890 21.849061 21.508229 21.260172 -28.089922 -7.309480 0.963579 -1.154650 -24.958980 -0.541703 -4.191158 0.044400 -7.125000 0.000000 0.000000 -20.726100 27.019100 9.649700 5.180309 4.606329 -0.540584 77.927190 -17.728804 16.893110 -11.156059 21.905232 -3.352744 -0.048635 1.064884 15.451437 -4.087013 -2.937358 0.259500 7.125000 0.000000 0.000000 18.512400 -33.480300 5.474900 
8.846989 17.444047 29.595543 -164.292283 -79.764793 177.596184 -1.944032 -5.840822 -3.217850 -14.349399 6.255306 -28.974010 0.067821 12.290613 30.886340 2.635162 -3.236084 6.587742 0.763100 -5.578500 -15.566200 -0.977640 4.946775 -3.137925 27.187548 -14.910652 -31.888462 -0.243826 -12.132250 30.600751 -6.203487 18.814606 5.743767 -0.098600 -2.024700 5.574000 6.978034 3.242220 0.818060 0.700138 4.102086 -4.727350 -0.743638 1.240389 -12.460808 -23.907440 -9.470752 1.917501 8.252492 -20.340239 8.279351 18.373200 -10.849900 6.419900 -8.774060 -9.249350 1.250881 -83.795397 21.779383 22.657838 21.254688 -28.099508 -7.269029 0.900087 -1.143730 -24.858748 0.456010 -4.044883 -0.005500 -7.125000 0.000000 0.000000 -19.985600 27.142900 9.198200 5.162166 4.581777 -0.561497 78.105380 -17.992507 18.573941 -11.323104 22.153657 -3.407189 -0.079996 1.124300 14.565600 -3.324910 -3.195189 0.220900 7.125000 0.000000 0.000000 19.200800 -33.738000 5.572100 
8.842004 17.447813 29.597869 -164.339474 -79.749060 177.666435 -1.934533 -5.842474 -3.206765 -14.435177 6.568816 -29.096177 0.054768 12.257664 30.838661 2.796910 -3.695189 6.726754 0.700400 -5.349400 -14.907900 -0.968791 4.951160 -3.143743 27.128910 -14.768225 -31.781121 -0.221784 -12.110021 30.519036 -6.185794 18.667415 5.744242 -0.096400 -2.001900 5.510900 6.864796 3.246384 0.632204 0.706224 4.087324 -4.723049 -0.642216 1.256363 -12.372361 -23.892726 -9.432649 1.936940 8.201616 -20.264674 8.366877 18.347400 -10.841300 6.423900 -8.776354 -9.224518 1.266663 -83.326346 21.730651 23.900830 21.250828 -28.110295 -7.222781 0.817533 -1.123715 -25.124206 1.714200 -3.917191 -0.064700 -7.125000 0.000000 0.000000 -19.027500 27.240100 8.659700 5.143422 4.556073 -0.582450 78.259231 -18.265992 20.321638 -11.533976 22.450739 -3.476100 -0.101986 1.176472 13.661091 -2.799666 -3.496885 0.195300 7.125000 0.000000 0.000000 19.705300 -34.043300 5.579200 
8.836908 17.451137 29.599974 -164.408532 -79.734359 177.761848 -1.923457 -5.845057 -3.195884 -14.527481 6.892041 -29.231398 0.043777 12.227097 30.800328 2.965620 -4.181453 6.866783 0.636800 -5.105700 -14.210400 -0.960307 4.954965 -3.150031 27.062290 -14.602036 -31.669480 -0.200976 -12.090194 30.441990 -6.163341 18.482549 5.727527 -0.092600 -1.962100 5.400800 6.748674 3.250578 0.444024 0.711017 4.073183 -4.720114 -0.545750 1.271611 -12.287254 -23.873500 -9.391946 1.962137 8.150286 -20.183524 8.455224 18.322000 -10.831000 6.424100 -8.779983 -9.197004 1.284200 -82.817624 21.705949 25.212337 21.246531 -28.127487 -7.180714 0.735334 -1.096745 -25.619391 2.958050 -3.899203 -0.125300 -7.125000 0.000000 0.000000 -18.053400 27.224500 8.177700 5.124829 4.529497 -0.602971 78.378257 -18.537413 22.075804 -11.782215 22.783322 -3.554081 -0.104524 1.219340 12.802527 -2.647580 -3.924044 0.202200 7.125000 0.000000 0.000000 19.931800 -34.481600 5.424600 
